# Alias OBJ Model File
# Exported from SketchUp, (c) 2000-2012 Trimble Navigation Limited
# File units = millimeters

mtllib desk.mtl

g Mesh1 Group2 Group1 Model

usemtl Color_003
v 1520 0 -1380
vt 0 0
vn 1 0 -0
v 1520 0 -1600
vt 8.66142 0
v 1520 740 -1600
vt 8.66142 29.1339
v 1520 740 -1380
vt 0 29.1339
f 1/1/1 2/2/1 3/3/1 4/4/1 

vn 0 0 1
v 1600 0 -1600
vt 3.14961 0
v 1600 740 -1600
vt 3.14961 29.1339
f 2/1/2 5/5/2 6/6/2 3/4/2 

vt -8.66142 0
vn -1 0 -0
v 1600 0 -1380
v 1600 740 -1380
vt -8.66142 29.1339
f 5/7/3 7/1/3 8/4/3 6/8/3 

vt -3.14961 0
vn 0 0 -1
vt -3.14961 29.1339
f 7/9/4 1/1/4 4/4/4 8/10/4 

vt -3.14961 8.66142
vn 0 -1 -0
vt 0 8.66142
f 6/11/5 8/9/5 4/1/5 3/12/5 

g Mesh2 Group3 Group1 Model

v 1600 0 -0
v 1520 0 -0
v 1520 740 -0
v 1600 740 -0
f 9/9/4 10/1/4 11/4/4 12/10/4 

v 1520 0 -220
v 1520 740 -220
f 10/1/1 13/2/1 14/3/1 11/4/1 

v 1600 0 -220
v 1600 740 -220
f 13/1/2 15/5/2 16/6/2 14/4/2 

f 15/7/3 9/1/3 12/4/3 16/8/3 

f 16/11/5 12/9/5 11/1/5 14/12/5 

g Mesh3 Group4 Group1 Model

v 0 0 -220
v 80 0 -220
v 80 740 -220
v 0 740 -220
f 17/1/2 18/5/2 19/6/2 20/4/2 

v 80 0 -0
v 80 740 -0
f 18/7/3 21/1/3 22/4/3 19/8/3 

v 0 0 -0
v 0 740 -0
f 21/9/4 23/1/4 24/4/4 22/10/4 

f 23/1/1 17/2/1 20/3/1 24/4/1 

f 24/1/5 20/12/5 19/11/5 22/9/5 

g Mesh4 Group5 Group1 Model

usemtl FrontColor
v 0 740 -1600
v 80 740 -1600
v 80 740 -1380
v 0 740 -1380
f 25/12/5 26/11/5 27/9/5 28/1/5 

v 0 0 -1600
v 80 0 -1600
f 29/1/2 30/5/2 26/6/2 25/4/2 

v 80 0 -1380
f 30/7/3 31/1/3 27/4/3 26/8/3 

v 0 0 -1380
f 31/9/4 32/1/4 28/4/4 27/10/4 

f 32/1/1 29/2/1 25/3/1 28/4/1 

g Mesh5 Group1 Model

usemtl Translucent_Glass_Blue
vt -62.9921 29.1339
vt -54.3307 29.1339
v 0 750 -0
vt 0 29.5276
v 0 750 -1600
vt -62.9921 29.5276
f 25/13/3 28/14/3 20/8/3 24/4/3 33/15/3 34/16/3 

vt 0 54.3307
vt -3.14961 54.3307
vt -3.14961 62.9921
vt -59.8425 62.9921
vt -59.8425 54.3307
vt -62.9921 54.3307
vt -62.9921 8.66142
vt -59.8425 8.66142
vt -59.8425 0
f 20/12/5 28/17/5 27/18/5 26/19/5 3/20/5 4/21/5 8/22/5 16/23/5 14/24/5 11/25/5 22/9/5 19/11/5 

vt -59.8425 29.1339
v 1600 750 -1600
f 6/13/4 3/26/4 26/10/4 25/4/4 34/15/4 35/16/4 

vt 0 62.9921
vn 0 1 -0
v 1600 750 -0
vt 62.9921 0
vt 62.9921 62.9921
f 34/27/6 33/1/6 36/28/6 35/29/6 

vt 59.8425 29.1339
vt 62.9921 29.1339
vt 62.9921 29.5276
f 24/4/2 22/6/2 11/30/2 12/31/2 36/32/2 33/15/2 

vt 54.3307 29.1339
f 12/4/1 16/3/1 8/33/1 6/31/1 35/32/1 36/15/1 

